<?xml version="1.0" standalone="no"?>
<!DOCTYPE svg PUBLIC "-//W3C//DTD SVG 20010904//EN"
 "http://www.w3.org/TR/2001/REC-SVG-20010904/DTD/svg10.dtd">
<svg version="1.0" xmlns="http://www.w3.org/2000/svg"
 width="1080.000000pt" height="1080.000000pt" viewBox="0 0 1080.000000 1080.000000"
 preserveAspectRatio="xMidYMid meet">

<g transform="translate(0.000000,1080.000000) scale(0.100000,-0.100000)"
fill="#000000" stroke="none">
<path d="M4632 5757 c-51 -54 -10 -137 68 -137 31 0 47 6 65 26 33 36 31 69
-4 105 -38 38 -97 41 -129 6z"/>
<path d="M3773 5705 c-96 -26 -156 -81 -200 -180 -27 -62 -24 -205 5 -270 27
-60 82 -119 137 -147 48 -25 145 -34 201 -19 44 12 124 64 124 82 0 5 -20 31
-44 56 l-43 47 -28 -22 c-40 -32 -123 -31 -154 2 -24 25 -51 103 -51 145 0 44
20 99 46 130 36 43 84 50 143 21 l45 -22 24 29 c50 60 55 72 41 89 -21 25
-101 62 -149 68 -26 3 -67 -1 -97 -9z"/>
<path d="M5718 5705 c-5 -5 -8 -142 -8 -306 l0 -298 36 -7 c69 -13 245 1 295
23 55 25 108 76 134 129 25 50 33 206 14 273 -19 66 -98 144 -170 166 -58 17
-289 32 -301 20z m257 -164 c17 -9 36 -29 43 -45 19 -39 18 -156 -3 -195 -19
-38 -69 -71 -107 -71 l-28 0 0 171 0 171 33 -7 c17 -4 46 -15 62 -24z"/>
<path d="M6317 5703 c-4 -3 -7 -140 -7 -304 l0 -298 33 -6 c17 -3 109 -5 202
-3 l170 3 3 41 c2 22 -2 52 -7 67 -10 27 -11 27 -110 27 -55 0 -106 3 -115 6
-11 4 -16 19 -16 50 l0 43 98 3 97 3 3 46 c2 25 -2 57 -7 72 -10 27 -12 27
-101 27 l-90 0 0 40 0 40 114 0 c95 0 115 3 120 16 9 24 7 68 -5 103 l-11 31
-182 0 c-101 0 -186 -3 -189 -7z"/>
<path d="M6757 5703 c-2 -5 35 -140 83 -302 68 -231 91 -296 106 -302 33 -13
171 -10 181 4 14 18 165 540 167 573 1 29 1 29 -68 32 -40 2 -74 -2 -80 -8 -6
-6 -31 -99 -56 -207 -25 -108 -50 -198 -55 -200 -6 -2 -28 72 -49 164 -21 93
-47 187 -58 211 l-18 42 -75 0 c-40 0 -76 -3 -78 -7z"/>
<path d="M3245 5542 l-200 -77 -3 -57 -3 -56 43 -20 c81 -39 389 -152 399
-147 12 8 12 76 0 108 -8 19 -28 30 -109 55 -55 18 -112 38 -127 46 -27 14
-24 15 106 58 147 47 146 47 134 124 -4 32 -11 44 -23 43 -9 0 -107 -35 -217
-77z"/>
<path d="M7329 5563 c2 -38 9 -62 20 -70 9 -7 65 -29 124 -49 60 -20 105 -40
100 -44 -4 -5 -61 -25 -125 -46 l-118 -37 0 -62 0 -62 30 5 c16 2 114 36 217
76 l188 72 3 44 c2 26 -3 52 -10 62 -12 16 -394 168 -422 168 -7 0 -10 -19 -7
-57z"/>
<path d="M4243 5570 c-33 -7 -116 -42 -131 -55 -6 -5 28 -65 48 -85 18 -18 22
-18 54 -5 41 18 80 19 107 5 32 -17 22 -27 -39 -39 -125 -24 -188 -78 -186
-160 1 -122 115 -187 222 -126 29 16 42 20 42 11 0 -16 43 -26 106 -26 l44 0
0 169 c0 96 -5 182 -11 198 -12 34 -55 80 -89 98 -35 18 -117 25 -167 15z
m101 -302 c12 -47 -63 -76 -88 -35 -9 15 -7 22 13 38 32 26 67 25 75 -3z"/>
<path d="M5027 5566 c-61 -17 -115 -60 -144 -117 -20 -37 -23 -56 -21 -125 3
-70 7 -87 33 -129 43 -69 100 -107 170 -113 166 -14 290 134 255 302 -9 42
-22 67 -56 105 -66 73 -150 101 -237 77z m101 -146 c18 -17 22 -32 22 -88 0
-84 -17 -115 -63 -110 -22 2 -36 11 -45 28 -16 32 -12 151 7 174 18 22 53 20
79 -4z"/>
<path d="M4627 5563 c-4 -3 -7 -109 -7 -234 l0 -228 33 -6 c18 -4 53 -5 77 -3
l45 3 3 211 c1 123 -2 223 -8 238 -9 24 -14 26 -73 26 -35 0 -67 -3 -70 -7z"/>
<path d="M5431 5254 c-26 -21 -31 -33 -31 -69 0 -104 130 -143 176 -54 23 45
17 78 -20 115 -42 42 -82 45 -125 8z"/>
</g>
</svg>
